%TF.GenerationSoftware,KiCad,Pcbnew,9.0.6*%
%TF.CreationDate,2026-01-01T00:57:53+05:30*%
%TF.ProjectId,fc,66632e6b-6963-4616-945f-706362585858,rev?*%
%TF.SameCoordinates,Original*%
%TF.FileFunction,Copper,L2,Bot*%
%TF.FilePolarity,Positive*%
%FSLAX46Y46*%
G04 Gerber Fmt 4.6, Leading zero omitted, Abs format (unit mm)*
G04 Created by KiCad (PCBNEW 9.0.6) date 2026-01-01 00:57:53*
%MOMM*%
%LPD*%
G01*
G04 APERTURE LIST*
G04 Aperture macros list*
%AMRoundRect*
0 Rectangle with rounded corners*
0 $1 Rounding radius*
0 $2 $3 $4 $5 $6 $7 $8 $9 X,Y pos of 4 corners*
0 Add a 4 corners polygon primitive as box body*
4,1,4,$2,$3,$4,$5,$6,$7,$8,$9,$2,$3,0*
0 Add four circle primitives for the rounded corners*
1,1,$1+$1,$2,$3*
1,1,$1+$1,$4,$5*
1,1,$1+$1,$6,$7*
1,1,$1+$1,$8,$9*
0 Add four rect primitives between the rounded corners*
20,1,$1+$1,$2,$3,$4,$5,0*
20,1,$1+$1,$4,$5,$6,$7,0*
20,1,$1+$1,$6,$7,$8,$9,0*
20,1,$1+$1,$8,$9,$2,$3,0*%
G04 Aperture macros list end*
%TA.AperFunction,ComponentPad*%
%ADD10C,0.700000*%
%TD*%
%TA.AperFunction,ComponentPad*%
%ADD11C,4.400000*%
%TD*%
%TA.AperFunction,ComponentPad*%
%ADD12C,1.700000*%
%TD*%
%TA.AperFunction,ComponentPad*%
%ADD13O,1.700000X1.700000*%
%TD*%
%TA.AperFunction,ComponentPad*%
%ADD14R,1.700000X1.700000*%
%TD*%
%TA.AperFunction,HeatsinkPad*%
%ADD15O,2.100000X1.000000*%
%TD*%
%TA.AperFunction,HeatsinkPad*%
%ADD16O,1.600000X1.000000*%
%TD*%
%TA.AperFunction,SMDPad,CuDef*%
%ADD17RoundRect,0.075000X0.700000X0.075000X-0.700000X0.075000X-0.700000X-0.075000X0.700000X-0.075000X0*%
%TD*%
%TA.AperFunction,SMDPad,CuDef*%
%ADD18RoundRect,0.075000X0.075000X0.700000X-0.075000X0.700000X-0.075000X-0.700000X0.075000X-0.700000X0*%
%TD*%
%TA.AperFunction,ViaPad*%
%ADD19C,0.800000*%
%TD*%
%TA.AperFunction,Conductor*%
%ADD20C,0.250000*%
%TD*%
G04 APERTURE END LIST*
D10*
%TO.P,H1,1,1*%
%TO.N,GND*%
X126446700Y-83636700D03*
X126929974Y-82469974D03*
X126929974Y-84803426D03*
X128096700Y-81986700D03*
D11*
X128096700Y-83636700D03*
D10*
X128096700Y-85286700D03*
X129263426Y-82469974D03*
X129263426Y-84803426D03*
X129746700Y-83636700D03*
%TD*%
D12*
%TO.P,J2,1,Pin_1*%
%TO.N,Net-(J2-Pin_1)*%
X127940000Y-92280000D03*
D13*
%TO.P,J2,2,Pin_2*%
%TO.N,Net-(J2-Pin_2)*%
X127940000Y-94820000D03*
%TO.P,J2,3,Pin_3*%
%TO.N,Net-(J2-Pin_3)*%
X127940000Y-97360000D03*
%TO.P,J2,4,Pin_4*%
%TO.N,Net-(J2-Pin_4)*%
X127940000Y-99900000D03*
%TO.P,J2,5,Pin_5*%
%TO.N,Net-(J2-Pin_5)*%
X127940000Y-103075000D03*
%TO.P,J2,6,Pin_6*%
%TO.N,Net-(J2-Pin_6)*%
X127940000Y-105615000D03*
%TO.P,J2,7,Pin_7*%
%TO.N,Net-(J2-Pin_7)*%
X127940000Y-108155000D03*
D12*
%TO.P,J2,8,Pin_8*%
%TO.N,VBUS*%
X130480000Y-92280000D03*
D13*
%TO.P,J2,9,Pin_9*%
X130480000Y-94820000D03*
%TO.P,J2,10,Pin_10*%
X130480000Y-97360000D03*
%TO.P,J2,11,Pin_11*%
X130480000Y-99900000D03*
%TO.P,J2,12,Pin_12*%
X130480000Y-103075000D03*
%TO.P,J2,13,Pin_13*%
X130480000Y-105615000D03*
%TO.P,J2,14,Pin_14*%
X130480000Y-108155000D03*
D14*
%TO.P,J2,15,Pin_15*%
%TO.N,GND*%
X133020000Y-92280000D03*
%TO.P,J2,16,Pin_16*%
X133020000Y-94820000D03*
%TO.P,J2,17,Pin_17*%
X133020000Y-97360000D03*
%TO.P,J2,18,Pin_18*%
X133020000Y-99900000D03*
%TO.P,J2,19,Pin_19*%
X133020000Y-103075000D03*
%TO.P,J2,20,Pin_20*%
X133020000Y-105615000D03*
%TO.P,J2,21,Pin_21*%
X133020000Y-108155000D03*
%TD*%
D15*
%TO.P,J1,S1,SHIELD*%
%TO.N,GND*%
X163570000Y-97860000D03*
D16*
X167750000Y-97860000D03*
D15*
X163570000Y-89220000D03*
D16*
X167750000Y-89220000D03*
%TD*%
D10*
%TO.P,H2,1,1*%
%TO.N,GND*%
X167606700Y-83396700D03*
X168089974Y-82229974D03*
X168089974Y-84563426D03*
X169256700Y-81746700D03*
D11*
X169256700Y-83396700D03*
D10*
X169256700Y-85046700D03*
X170423426Y-82229974D03*
X170423426Y-84563426D03*
X170906700Y-83396700D03*
%TD*%
%TO.P,H3,1,1*%
%TO.N,GND*%
X167710000Y-115710000D03*
X168193274Y-114543274D03*
X168193274Y-116876726D03*
X169360000Y-114060000D03*
D11*
X169360000Y-115710000D03*
D10*
X169360000Y-117360000D03*
X170526726Y-114543274D03*
X170526726Y-116876726D03*
X171010000Y-115710000D03*
%TD*%
%TO.P,H4,1,1*%
%TO.N,GND*%
X126446700Y-115503300D03*
X126929974Y-114336574D03*
X126929974Y-116670026D03*
X128096700Y-113853300D03*
D11*
X128096700Y-115503300D03*
D10*
X128096700Y-117153300D03*
X129263426Y-114336574D03*
X129263426Y-116670026D03*
X129746700Y-115503300D03*
%TD*%
D17*
%TO.P,U6,1,VBAT*%
%TO.N,+3V3*%
X155515000Y-94880000D03*
%TO.P,U6,2,PC13*%
%TO.N,unconnected-(U6-PC13-Pad2)*%
X155515000Y-95380000D03*
%TO.P,U6,3,PC14*%
%TO.N,/LED_GR*%
X155515000Y-95880000D03*
%TO.P,U6,4,PC15*%
%TO.N,/LED_RD*%
X155515000Y-96380000D03*
%TO.P,U6,5,PH0*%
%TO.N,Net-(U6-PH0)*%
X155515000Y-96880000D03*
%TO.P,U6,6,PH1*%
%TO.N,Net-(U6-PH1)*%
X155515000Y-97380000D03*
%TO.P,U6,7,NRST*%
%TO.N,Net-(U6-NRST)*%
X155515000Y-97880000D03*
%TO.P,U6,8,PC0*%
%TO.N,/VBAT_ADC*%
X155515000Y-98380000D03*
%TO.P,U6,9,PC1*%
%TO.N,/Vx_ADC*%
X155515000Y-98880000D03*
%TO.P,U6,10,PC2*%
%TO.N,/5V_ADC*%
X155515000Y-99380000D03*
%TO.P,U6,11,PC3*%
%TO.N,/Vx_Curr*%
X155515000Y-99880000D03*
%TO.P,U6,12,VSSA*%
%TO.N,GND*%
X155515000Y-100380000D03*
%TO.P,U6,13,VDDA*%
%TO.N,+3V3*%
X155515000Y-100880000D03*
%TO.P,U6,14,PA0*%
%TO.N,/UART4_TX*%
X155515000Y-101380000D03*
%TO.P,U6,15,PA1*%
%TO.N,/UART4_RX*%
X155515000Y-101880000D03*
%TO.P,U6,16,PA2*%
%TO.N,/RPM*%
X155515000Y-102380000D03*
D18*
%TO.P,U6,17,PA3*%
%TO.N,/SBUS*%
X153590000Y-104305000D03*
%TO.P,U6,18,VSS*%
%TO.N,GND*%
X153090000Y-104305000D03*
%TO.P,U6,19,VDD*%
%TO.N,+3V3*%
X152590000Y-104305000D03*
%TO.P,U6,20,PA4*%
%TO.N,/BMI_NSS*%
X152090000Y-104305000D03*
%TO.P,U6,21,PA5*%
%TO.N,/BMI_SCK*%
X151590000Y-104305000D03*
%TO.P,U6,22,PA6*%
%TO.N,/BMI_MISO*%
X151090000Y-104305000D03*
%TO.P,U6,23,PA7*%
%TO.N,/BMI_MOSI*%
X150590000Y-104305000D03*
%TO.P,U6,24,PC4*%
%TO.N,/ESC_Curr*%
X150090000Y-104305000D03*
%TO.P,U6,25,PB0*%
%TO.N,/S3*%
X149590000Y-104305000D03*
%TO.P,U6,26,PB1*%
%TO.N,unconnected-(U6-PB1-Pad26)*%
X149090000Y-104305000D03*
%TO.P,U6,27,PB2*%
%TO.N,unconnected-(U6-PB2-Pad27)*%
X148590000Y-104305000D03*
%TO.P,U6,28,PB10*%
%TO.N,/UART3_TX*%
X148090000Y-104305000D03*
%TO.P,U6,29,PB11*%
%TO.N,/UART3_RX*%
X147590000Y-104305000D03*
%TO.P,U6,30,VCAP_1*%
%TO.N,Net-(U6-VCAP_1)*%
X147090000Y-104305000D03*
%TO.P,U6,31,VSS*%
%TO.N,GND*%
X146590000Y-104305000D03*
%TO.P,U6,32,VDD*%
%TO.N,+3V3*%
X146090000Y-104305000D03*
D17*
%TO.P,U6,33,PB12*%
%TO.N,/FLASH_NSS*%
X144165000Y-102380000D03*
%TO.P,U6,34,PB13*%
%TO.N,/FLASH_SCK*%
X144165000Y-101880000D03*
%TO.P,U6,35,PB14*%
%TO.N,/FLASH_MISO*%
X144165000Y-101380000D03*
%TO.P,U6,36,PB15*%
%TO.N,/FLASH_MOSI*%
X144165000Y-100880000D03*
%TO.P,U6,37,PC6*%
%TO.N,/UART6_TX*%
X144165000Y-100380000D03*
%TO.P,U6,38,PC7*%
%TO.N,/UART6_RX*%
X144165000Y-99880000D03*
%TO.P,U6,39,PC8*%
%TO.N,unconnected-(U6-PC8-Pad39)*%
X144165000Y-99380000D03*
%TO.P,U6,40,PC9*%
%TO.N,unconnected-(U6-PC9-Pad40)*%
X144165000Y-98880000D03*
%TO.P,U6,41,PA8*%
%TO.N,/LEDOUT*%
X144165000Y-98380000D03*
%TO.P,U6,42,PA9*%
%TO.N,unconnected-(U6-PA9-Pad42)*%
X144165000Y-97880000D03*
%TO.P,U6,43,PA10*%
%TO.N,/DSM*%
X144165000Y-97380000D03*
%TO.P,U6,44,PA11*%
%TO.N,/MCU_D-*%
X144165000Y-96880000D03*
%TO.P,U6,45,PA12*%
%TO.N,/MCU_D+*%
X144165000Y-96380000D03*
%TO.P,U6,46,PA13*%
%TO.N,/SWDIO*%
X144165000Y-95880000D03*
%TO.P,U6,47,VSS*%
%TO.N,GND*%
X144165000Y-95380000D03*
%TO.P,U6,48,VDD*%
%TO.N,+3V3*%
X144165000Y-94880000D03*
D18*
%TO.P,U6,49,PA14*%
%TO.N,/SWCLK*%
X146090000Y-92955000D03*
%TO.P,U6,50,PA15*%
%TO.N,/BMI_INT*%
X146590000Y-92955000D03*
%TO.P,U6,51,PC10*%
%TO.N,unconnected-(U6-PC10-Pad51)*%
X147090000Y-92955000D03*
%TO.P,U6,52,PC11*%
%TO.N,unconnected-(U6-PC11-Pad52)*%
X147590000Y-92955000D03*
%TO.P,U6,53,PC12*%
%TO.N,unconnected-(U6-PC12-Pad53)*%
X148090000Y-92955000D03*
%TO.P,U6,54,PD2*%
%TO.N,unconnected-(U6-PD2-Pad54)*%
X148590000Y-92955000D03*
%TO.P,U6,55,PB3*%
%TO.N,/TAIL*%
X149090000Y-92955000D03*
%TO.P,U6,56,PB4*%
%TO.N,/S1*%
X149590000Y-92955000D03*
%TO.P,U6,57,PB5*%
%TO.N,/S2*%
X150090000Y-92955000D03*
%TO.P,U6,58,PB6*%
%TO.N,/ESC*%
X150590000Y-92955000D03*
%TO.P,U6,59,PB7*%
%TO.N,unconnected-(U6-PB7-Pad59)*%
X151090000Y-92955000D03*
%TO.P,U6,60,BOOT0*%
%TO.N,Net-(U6-BOOT0)*%
X151590000Y-92955000D03*
%TO.P,U6,61,PB8*%
%TO.N,/BARO_SCL*%
X152090000Y-92955000D03*
%TO.P,U6,62,PB9*%
%TO.N,/BARO_SDA*%
X152590000Y-92955000D03*
%TO.P,U6,63,VSS*%
%TO.N,GND*%
X153090000Y-92955000D03*
%TO.P,U6,64,VDD*%
%TO.N,+3V3*%
X153590000Y-92955000D03*
%TD*%
D19*
%TO.N,GND*%
X157828700Y-102158100D03*
X147257000Y-106402100D03*
X137139400Y-101657800D03*
%TO.N,/S2*%
X137639300Y-97203000D03*
X149972600Y-95176200D03*
%TO.N,/S3*%
X140562700Y-102546900D03*
X150675000Y-101144900D03*
%TO.N,+3V3*%
X138424400Y-86611400D03*
X157099700Y-100812700D03*
X141620800Y-95385900D03*
X146671900Y-115360300D03*
X153472900Y-95020400D03*
%TO.N,VBUS*%
X137210000Y-113186500D03*
%TO.N,Net-(D1-A)*%
X161235200Y-96173500D03*
X158963100Y-89831500D03*
X161639600Y-106773000D03*
%TO.N,/S1*%
X134942800Y-99263100D03*
X133347600Y-89067700D03*
X149614500Y-90825100D03*
%TO.N,/USB_D-*%
X158389900Y-91801100D03*
X166132200Y-93718500D03*
%TO.N,/TAIL*%
X140233600Y-104317800D03*
X137574800Y-99150400D03*
%TO.N,/ESC*%
X150654500Y-94436900D03*
X141400900Y-109170300D03*
%TO.N,/RPM*%
X155182700Y-107750000D03*
X137101200Y-111181100D03*
X138943800Y-110190900D03*
%TO.N,/SBUS*%
X153387500Y-106325400D03*
X134744400Y-108340400D03*
%TO.N,Net-(U6-PH0)*%
X159561200Y-98346900D03*
%TO.N,Net-(U6-PH1)*%
X158991200Y-99887500D03*
%TO.N,Net-(U6-VCAP_1)*%
X147929200Y-101618200D03*
%TO.N,Net-(J2-Pin_3)*%
X139248100Y-97529100D03*
%TO.N,Net-(J2-Pin_4)*%
X138365200Y-101526100D03*
%TO.N,/MCU_D-*%
X141613800Y-97576100D03*
X160001000Y-93580000D03*
%TO.N,/MCU_D+*%
X159717300Y-95157100D03*
X140147400Y-96174200D03*
%TO.N,Net-(J2-Pin_7)*%
X133758200Y-110151100D03*
%TO.N,Net-(J3-Pin_2)*%
X157602100Y-103426500D03*
X163209400Y-103954600D03*
%TO.N,Net-(U6-BOOT0)*%
X151008400Y-90524400D03*
%TO.N,/BARO_SCL*%
X154167100Y-91217500D03*
X151716000Y-86390000D03*
%TO.N,/BARO_SDA*%
X152538300Y-90381600D03*
X152816300Y-87826600D03*
%TO.N,Net-(U6-NRST)*%
X154793800Y-103954300D03*
X156202900Y-90268300D03*
%TO.N,/UART4_TX*%
X157965400Y-107967900D03*
%TO.N,/UART4_RX*%
X153922500Y-101543200D03*
%TO.N,/DSM*%
X141427900Y-100852000D03*
%TO.N,/LED_RD*%
X155767100Y-87702100D03*
%TO.N,/LED_GR*%
X158229100Y-96245300D03*
X155140000Y-105208300D03*
%TO.N,/FLASH_NSS*%
X146937700Y-94887900D03*
X143993200Y-104414000D03*
%TO.N,/FLASH_MISO*%
X145696700Y-100796200D03*
%TO.N,/FLASH_MOSI*%
X151901200Y-101144900D03*
X142153800Y-99190100D03*
%TO.N,/FLASH_SCK*%
X152541500Y-98300700D03*
X142294400Y-101749100D03*
%TD*%
D20*
%TO.N,GND*%
X146590000Y-103391300D02*
X146590000Y-104305000D01*
X153090000Y-105375500D02*
X152063400Y-106402100D01*
X156504800Y-100380000D02*
X155515000Y-100380000D01*
X145613000Y-103431200D02*
X145613000Y-105448100D01*
X157828700Y-100664000D02*
X157828700Y-100514000D01*
X146596000Y-96904400D02*
X145071600Y-95380000D01*
X153090000Y-104305000D02*
X153090000Y-105375500D01*
X153090000Y-92955000D02*
X153090000Y-93836700D01*
X146596000Y-102982700D02*
X146388700Y-103190000D01*
X152063400Y-106402100D02*
X147257000Y-106402100D01*
X146388700Y-103190000D02*
X145854200Y-103190000D01*
X156798800Y-100086000D02*
X156504800Y-100380000D01*
X157400700Y-100086000D02*
X156798800Y-100086000D01*
X145613000Y-105448100D02*
X146567000Y-106402100D01*
X145854200Y-103190000D02*
X145613000Y-103431200D01*
X146596000Y-96904400D02*
X146596000Y-102982700D01*
X160836000Y-100664000D02*
X157828700Y-100664000D01*
X146388700Y-103190000D02*
X146590000Y-103391300D01*
X157828700Y-100514000D02*
X157400700Y-100086000D01*
X145071600Y-95380000D02*
X144165000Y-95380000D01*
X146567000Y-106402100D02*
X147257000Y-106402100D01*
X150022300Y-96904400D02*
X146596000Y-96904400D01*
X153090000Y-93836700D02*
X150022300Y-96904400D01*
X157828700Y-102158100D02*
X157828700Y-100664000D01*
X163660000Y-97840000D02*
X160836000Y-100664000D01*
%TO.N,/S2*%
X149927800Y-94136000D02*
X149927800Y-95131400D01*
X149972600Y-95176200D02*
X149972600Y-95177800D01*
X149927800Y-95131400D02*
X149972600Y-95176200D01*
X149972600Y-95177800D02*
X149972600Y-95176200D01*
X150090000Y-93973800D02*
X149927800Y-94136000D01*
X150090000Y-92955000D02*
X150090000Y-93973800D01*
%TO.N,/S3*%
X150675000Y-101144900D02*
X149590000Y-102229900D01*
X149590000Y-102229900D02*
X149590000Y-104305000D01*
%TO.N,+3V3*%
X152842500Y-99027400D02*
X153268600Y-98601300D01*
X146295200Y-105435300D02*
X146090000Y-105230100D01*
X152590000Y-104305000D02*
X152590000Y-101483800D01*
X152590000Y-104305000D02*
X152590000Y-105223600D01*
X142126700Y-94880000D02*
X144165000Y-94880000D01*
X155045700Y-94410600D02*
X155515000Y-94880000D01*
X153954400Y-95501900D02*
X155045700Y-94410600D01*
X153268600Y-96187700D02*
X153954400Y-95501900D01*
X152627900Y-101445900D02*
X152627900Y-99238700D01*
X153268600Y-98601300D02*
X153268600Y-96187700D01*
X141620800Y-95385900D02*
X142126700Y-94880000D01*
X157032400Y-100880000D02*
X155515000Y-100880000D01*
X153590000Y-92955000D02*
X155045700Y-94410600D01*
X152627900Y-99238700D02*
X152839200Y-99027400D01*
X157099700Y-100812700D02*
X157032400Y-100880000D01*
X152839200Y-99027400D02*
X152842500Y-99027400D01*
X146090000Y-105230100D02*
X146090000Y-104305000D01*
X152590000Y-101483800D02*
X152627900Y-101445900D01*
X153954400Y-95501900D02*
X153472900Y-95020400D01*
X152590000Y-105223600D02*
X152378300Y-105435300D01*
X152378300Y-105435300D02*
X146295200Y-105435300D01*
%TO.N,/S1*%
X149590000Y-92955000D02*
X149590000Y-90849600D01*
X149590000Y-90849600D02*
X149614500Y-90825100D01*
%TO.N,/TAIL*%
X138366000Y-98359200D02*
X137574800Y-99150400D01*
X141233400Y-94060600D02*
X138366000Y-96928000D01*
X148870900Y-94060600D02*
X141233400Y-94060600D01*
X149090000Y-92955000D02*
X149090000Y-93841500D01*
X138366000Y-96928000D02*
X138366000Y-98359200D01*
X149090000Y-93841500D02*
X148870900Y-94060600D01*
%TO.N,/ESC*%
X150590000Y-94372400D02*
X150590000Y-92955000D01*
X150654500Y-94436900D02*
X150590000Y-94372400D01*
%TO.N,/RPM*%
X155888400Y-102753400D02*
X155888400Y-107044300D01*
X155888400Y-107044300D02*
X155182700Y-107750000D01*
X155515000Y-102380000D02*
X155888400Y-102753400D01*
%TO.N,/SBUS*%
X153387500Y-106325400D02*
X153590000Y-106122900D01*
X153590000Y-106122900D02*
X153590000Y-104305000D01*
%TO.N,Net-(U6-PH0)*%
X158175900Y-98346900D02*
X159561200Y-98346900D01*
X155515000Y-96880000D02*
X156709000Y-96880000D01*
X156709000Y-96880000D02*
X158175900Y-98346900D01*
%TO.N,Net-(U6-PH1)*%
X156483700Y-97380000D02*
X158991200Y-99887500D01*
X155515000Y-97380000D02*
X156483700Y-97380000D01*
%TO.N,Net-(U6-VCAP_1)*%
X147090000Y-104305000D02*
X147090000Y-102457400D01*
X147090000Y-102457400D02*
X147929200Y-101618200D01*
%TO.N,/MCU_D-*%
X141759900Y-97430000D02*
X141613800Y-97576100D01*
X142309900Y-96880000D02*
X144165000Y-96880000D01*
X141613800Y-97576100D02*
X142309900Y-96880000D01*
X141613800Y-97576100D02*
X141759900Y-97430000D01*
%TO.N,/MCU_D+*%
X140353200Y-96380000D02*
X144165000Y-96380000D01*
X140147400Y-96174200D02*
X140353200Y-96380000D01*
%TO.N,Net-(U6-BOOT0)*%
X151590000Y-91106000D02*
X151590000Y-92955000D01*
X151009200Y-90525200D02*
X151590000Y-91106000D01*
X151009200Y-90525200D02*
X151008400Y-90524400D01*
%TO.N,/BARO_SCL*%
X152089600Y-90960500D02*
X152089600Y-92954600D01*
X152089600Y-92954600D02*
X152090000Y-92955000D01*
X151806800Y-86480800D02*
X151806800Y-90677700D01*
X151806800Y-90677700D02*
X152089600Y-90960500D01*
X151716000Y-86390000D02*
X151806800Y-86480800D01*
%TO.N,/BARO_SDA*%
X152590000Y-88052900D02*
X152590000Y-90381600D01*
X152816300Y-87826600D02*
X152590000Y-88052900D01*
X152590000Y-90381600D02*
X152590000Y-92955000D01*
X152538300Y-90381600D02*
X152590000Y-90381600D01*
%TO.N,Net-(U6-NRST)*%
X153171200Y-99337500D02*
X154628700Y-97880000D01*
X153171200Y-102331700D02*
X153171200Y-99337500D01*
X154793800Y-103954300D02*
X153171200Y-102331700D01*
X154628700Y-97880000D02*
X155515000Y-97880000D01*
%TO.N,/UART4_TX*%
X156365800Y-101380000D02*
X155515000Y-101380000D01*
X156662400Y-106664900D02*
X156662400Y-101676600D01*
X157965400Y-107967900D02*
X156662400Y-106664900D01*
X156662400Y-101676600D02*
X156365800Y-101380000D01*
%TO.N,/UART4_RX*%
X154259300Y-101880000D02*
X155515000Y-101880000D01*
X153922500Y-101543200D02*
X154259300Y-101880000D01*
%TO.N,/DSM*%
X141427900Y-100852000D02*
X141426200Y-100850300D01*
X141426200Y-98890100D02*
X142936300Y-97380000D01*
X141426200Y-100850300D02*
X141426200Y-98890100D01*
X142936300Y-97380000D02*
X144165000Y-97380000D01*
%TO.N,/LED_RD*%
X158956500Y-96582700D02*
X158956500Y-94049500D01*
X157334600Y-96380000D02*
X157928200Y-96973600D01*
X158956500Y-94049500D02*
X155476200Y-90569200D01*
X155515000Y-96380000D02*
X157334600Y-96380000D01*
X155476200Y-90569200D02*
X155476200Y-87993000D01*
X157928200Y-96973600D02*
X158565600Y-96973600D01*
X158565600Y-96973600D02*
X158956500Y-96582700D01*
X155476200Y-87993000D02*
X155767100Y-87702100D01*
%TO.N,/LED_GR*%
X158229100Y-96245300D02*
X158229100Y-96246900D01*
X158229100Y-96246900D02*
X158229100Y-96245300D01*
X155515000Y-95880000D02*
X157863800Y-95880000D01*
X157863800Y-95880000D02*
X158229100Y-96245300D01*
%TO.N,/FLASH_NSS*%
X143993200Y-102551800D02*
X144165000Y-102380000D01*
X143993200Y-103308300D02*
X143993200Y-104414000D01*
X143993200Y-104414000D02*
X143993200Y-102551800D01*
X143993200Y-104414000D02*
X143993200Y-103308300D01*
%TO.N,/FLASH_MISO*%
X145112900Y-101380000D02*
X144165000Y-101380000D01*
X145696700Y-100796200D02*
X145112900Y-101380000D01*
%TO.N,/FLASH_MOSI*%
X143259300Y-100880000D02*
X142153800Y-99774500D01*
X144165000Y-100880000D02*
X143259300Y-100880000D01*
X142153800Y-99774500D02*
X142153800Y-99190100D01*
%TO.N,/FLASH_SCK*%
X142425300Y-101880000D02*
X142294400Y-101749100D01*
X144165000Y-101880000D02*
X142425300Y-101880000D01*
%TD*%
M02*
