%TF.GenerationSoftware,KiCad,Pcbnew,9.0.6*%
%TF.CreationDate,2026-01-01T00:57:53+05:30*%
%TF.ProjectId,fc,66632e6b-6963-4616-945f-706362585858,rev?*%
%TF.SameCoordinates,Original*%
%TF.FileFunction,Paste,Bot*%
%TF.FilePolarity,Positive*%
%FSLAX46Y46*%
G04 Gerber Fmt 4.6, Leading zero omitted, Abs format (unit mm)*
G04 Created by KiCad (PCBNEW 9.0.6) date 2026-01-01 00:57:53*
%MOMM*%
%LPD*%
G01*
G04 APERTURE LIST*
G04 Aperture macros list*
%AMRoundRect*
0 Rectangle with rounded corners*
0 $1 Rounding radius*
0 $2 $3 $4 $5 $6 $7 $8 $9 X,Y pos of 4 corners*
0 Add a 4 corners polygon primitive as box body*
4,1,4,$2,$3,$4,$5,$6,$7,$8,$9,$2,$3,0*
0 Add four circle primitives for the rounded corners*
1,1,$1+$1,$2,$3*
1,1,$1+$1,$4,$5*
1,1,$1+$1,$6,$7*
1,1,$1+$1,$8,$9*
0 Add four rect primitives between the rounded corners*
20,1,$1+$1,$2,$3,$4,$5,0*
20,1,$1+$1,$4,$5,$6,$7,0*
20,1,$1+$1,$6,$7,$8,$9,0*
20,1,$1+$1,$8,$9,$2,$3,0*%
G04 Aperture macros list end*
%ADD10RoundRect,0.075000X0.700000X0.075000X-0.700000X0.075000X-0.700000X-0.075000X0.700000X-0.075000X0*%
%ADD11RoundRect,0.075000X0.075000X0.700000X-0.075000X0.700000X-0.075000X-0.700000X0.075000X-0.700000X0*%
G04 APERTURE END LIST*
D10*
%TO.C,U6*%
X155515000Y-94880000D03*
X155515000Y-95380000D03*
X155515000Y-95880000D03*
X155515000Y-96380000D03*
X155515000Y-96880000D03*
X155515000Y-97380000D03*
X155515000Y-97880000D03*
X155515000Y-98380000D03*
X155515000Y-98880000D03*
X155515000Y-99380000D03*
X155515000Y-99880000D03*
X155515000Y-100380000D03*
X155515000Y-100880000D03*
X155515000Y-101380000D03*
X155515000Y-101880000D03*
X155515000Y-102380000D03*
D11*
X153590000Y-104305000D03*
X153090000Y-104305000D03*
X152590000Y-104305000D03*
X152090000Y-104305000D03*
X151590000Y-104305000D03*
X151090000Y-104305000D03*
X150590000Y-104305000D03*
X150090000Y-104305000D03*
X149590000Y-104305000D03*
X149090000Y-104305000D03*
X148590000Y-104305000D03*
X148090000Y-104305000D03*
X147590000Y-104305000D03*
X147090000Y-104305000D03*
X146590000Y-104305000D03*
X146090000Y-104305000D03*
D10*
X144165000Y-102380000D03*
X144165000Y-101880000D03*
X144165000Y-101380000D03*
X144165000Y-100880000D03*
X144165000Y-100380000D03*
X144165000Y-99880000D03*
X144165000Y-99380000D03*
X144165000Y-98880000D03*
X144165000Y-98380000D03*
X144165000Y-97880000D03*
X144165000Y-97380000D03*
X144165000Y-96880000D03*
X144165000Y-96380000D03*
X144165000Y-95880000D03*
X144165000Y-95380000D03*
X144165000Y-94880000D03*
D11*
X146090000Y-92955000D03*
X146590000Y-92955000D03*
X147090000Y-92955000D03*
X147590000Y-92955000D03*
X148090000Y-92955000D03*
X148590000Y-92955000D03*
X149090000Y-92955000D03*
X149590000Y-92955000D03*
X150090000Y-92955000D03*
X150590000Y-92955000D03*
X151090000Y-92955000D03*
X151590000Y-92955000D03*
X152090000Y-92955000D03*
X152590000Y-92955000D03*
X153090000Y-92955000D03*
X153590000Y-92955000D03*
%TD*%
M02*
