%TF.GenerationSoftware,KiCad,Pcbnew,9.0.6*%
%TF.CreationDate,2026-01-01T00:57:53+05:30*%
%TF.ProjectId,fc,66632e6b-6963-4616-945f-706362585858,rev?*%
%TF.SameCoordinates,Original*%
%TF.FileFunction,Soldermask,Top*%
%TF.FilePolarity,Negative*%
%FSLAX46Y46*%
G04 Gerber Fmt 4.6, Leading zero omitted, Abs format (unit mm)*
G04 Created by KiCad (PCBNEW 9.0.6) date 2026-01-01 00:57:53*
%MOMM*%
%LPD*%
G01*
G04 APERTURE LIST*
G04 Aperture macros list*
%AMRoundRect*
0 Rectangle with rounded corners*
0 $1 Rounding radius*
0 $2 $3 $4 $5 $6 $7 $8 $9 X,Y pos of 4 corners*
0 Add a 4 corners polygon primitive as box body*
4,1,4,$2,$3,$4,$5,$6,$7,$8,$9,$2,$3,0*
0 Add four circle primitives for the rounded corners*
1,1,$1+$1,$2,$3*
1,1,$1+$1,$4,$5*
1,1,$1+$1,$6,$7*
1,1,$1+$1,$8,$9*
0 Add four rect primitives between the rounded corners*
20,1,$1+$1,$2,$3,$4,$5,0*
20,1,$1+$1,$4,$5,$6,$7,0*
20,1,$1+$1,$6,$7,$8,$9,0*
20,1,$1+$1,$8,$9,$2,$3,0*%
G04 Aperture macros list end*
%ADD10RoundRect,0.140000X-0.140000X-0.170000X0.140000X-0.170000X0.140000X0.170000X-0.140000X0.170000X0*%
%ADD11RoundRect,0.135000X-0.135000X-0.185000X0.135000X-0.185000X0.135000X0.185000X-0.135000X0.185000X0*%
%ADD12C,0.700000*%
%ADD13C,4.400000*%
%ADD14RoundRect,0.225000X-0.225000X-0.250000X0.225000X-0.250000X0.225000X0.250000X-0.225000X0.250000X0*%
%ADD15RoundRect,0.150000X-0.512500X-0.150000X0.512500X-0.150000X0.512500X0.150000X-0.512500X0.150000X0*%
%ADD16R,1.150000X3.600000*%
%ADD17RoundRect,0.062500X-0.337500X-0.062500X0.337500X-0.062500X0.337500X0.062500X-0.337500X0.062500X0*%
%ADD18R,1.300000X2.200000*%
%ADD19RoundRect,0.218750X-0.218750X-0.256250X0.218750X-0.256250X0.218750X0.256250X-0.218750X0.256250X0*%
%ADD20C,1.700000*%
%ADD21O,1.700000X1.700000*%
%ADD22R,1.700000X1.700000*%
%ADD23R,0.350000X0.500000*%
%ADD24C,0.650000*%
%ADD25R,1.450000X0.600000*%
%ADD26R,1.450000X0.300000*%
%ADD27O,2.100000X1.000000*%
%ADD28O,1.600000X1.000000*%
%ADD29RoundRect,0.150000X-0.700000X0.150000X-0.700000X-0.150000X0.700000X-0.150000X0.700000X0.150000X0*%
%ADD30RoundRect,0.250000X-1.150000X0.250000X-1.150000X-0.250000X1.150000X-0.250000X1.150000X0.250000X0*%
%ADD31RoundRect,0.225000X-0.225000X-0.375000X0.225000X-0.375000X0.225000X0.375000X-0.225000X0.375000X0*%
%ADD32RoundRect,0.125000X-0.200000X-0.125000X0.200000X-0.125000X0.200000X0.125000X-0.200000X0.125000X0*%
%ADD33R,3.400000X4.300000*%
%ADD34RoundRect,0.200000X0.800000X-0.200000X0.800000X0.200000X-0.800000X0.200000X-0.800000X-0.200000X0*%
%ADD35R,0.400000X1.900000*%
G04 APERTURE END LIST*
D10*
%TO.C,C14*%
X135760000Y-92390000D03*
X136720000Y-92390000D03*
%TD*%
%TO.C,C17*%
X151760000Y-113390000D03*
X152720000Y-113390000D03*
%TD*%
D11*
%TO.C,R14*%
X150730000Y-85390000D03*
X151750000Y-85390000D03*
%TD*%
%TO.C,R21*%
X142730000Y-100390000D03*
X143750000Y-100390000D03*
%TD*%
%TO.C,R10*%
X150730000Y-89390000D03*
X151750000Y-89390000D03*
%TD*%
%TO.C,R13*%
X142730000Y-98390000D03*
X143750000Y-98390000D03*
%TD*%
D12*
%TO.C,H1*%
X126446700Y-83636700D03*
X126929974Y-82469974D03*
X126929974Y-84803426D03*
X128096700Y-81986700D03*
D13*
X128096700Y-83636700D03*
D12*
X128096700Y-85286700D03*
X129263426Y-82469974D03*
X129263426Y-84803426D03*
X129746700Y-83636700D03*
%TD*%
D10*
%TO.C,C18*%
X145760000Y-103390000D03*
X146720000Y-103390000D03*
%TD*%
%TO.C,C20*%
X143760000Y-93390000D03*
X144720000Y-93390000D03*
%TD*%
%TO.C,C8*%
X148760000Y-103390000D03*
X149720000Y-103390000D03*
%TD*%
%TO.C,C12*%
X135760000Y-94390000D03*
X136720000Y-94390000D03*
%TD*%
D14*
%TO.C,C4*%
X160465000Y-116390000D03*
X162015000Y-116390000D03*
%TD*%
D15*
%TO.C,U2*%
X141102500Y-113440000D03*
X141102500Y-114390000D03*
X141102500Y-115340000D03*
X143377500Y-115340000D03*
X143377500Y-114390000D03*
X143377500Y-113440000D03*
%TD*%
D16*
%TO.C,L1*%
X135765000Y-113390000D03*
X138715000Y-113390000D03*
%TD*%
D11*
%TO.C,R5*%
X140730000Y-107390000D03*
X141750000Y-107390000D03*
%TD*%
D15*
%TO.C,U5*%
X159102500Y-102440000D03*
X159102500Y-103390000D03*
X159102500Y-104340000D03*
X161377500Y-104340000D03*
X161377500Y-102440000D03*
%TD*%
D11*
%TO.C,R8*%
X162730000Y-87390000D03*
X163750000Y-87390000D03*
%TD*%
D15*
%TO.C,U4*%
X156102500Y-93440000D03*
X156102500Y-94390000D03*
X156102500Y-95340000D03*
X158377500Y-95340000D03*
X158377500Y-94390000D03*
X158377500Y-93440000D03*
%TD*%
D11*
%TO.C,R15*%
X150730000Y-87390000D03*
X151750000Y-87390000D03*
%TD*%
D17*
%TO.C,U3*%
X135965000Y-102390000D03*
X135965000Y-102890000D03*
X135965000Y-103390000D03*
X135965000Y-103890000D03*
X135965000Y-104390000D03*
X138515000Y-104390000D03*
X138515000Y-103890000D03*
X138515000Y-103390000D03*
X138515000Y-102890000D03*
X138515000Y-102390000D03*
D18*
X137240000Y-103390000D03*
%TD*%
D11*
%TO.C,R12*%
X153730000Y-89390000D03*
X154750000Y-89390000D03*
%TD*%
D19*
%TO.C,D2*%
X146452500Y-105390000D03*
X148027500Y-105390000D03*
%TD*%
D11*
%TO.C,R6*%
X128730000Y-110390000D03*
X129750000Y-110390000D03*
%TD*%
D20*
%TO.C,J2*%
X127940000Y-92280000D03*
D21*
X127940000Y-94820000D03*
X127940000Y-97360000D03*
X127940000Y-99900000D03*
X127940000Y-103075000D03*
X127940000Y-105615000D03*
X127940000Y-108155000D03*
D20*
X130480000Y-92280000D03*
D21*
X130480000Y-94820000D03*
X130480000Y-97360000D03*
X130480000Y-99900000D03*
X130480000Y-103075000D03*
X130480000Y-105615000D03*
X130480000Y-108155000D03*
D22*
X133020000Y-92280000D03*
X133020000Y-94820000D03*
X133020000Y-97360000D03*
X133020000Y-99900000D03*
X133020000Y-103075000D03*
X133020000Y-105615000D03*
X133020000Y-108155000D03*
%TD*%
D11*
%TO.C,R19*%
X153730000Y-87390000D03*
X154750000Y-87390000D03*
%TD*%
D14*
%TO.C,C9*%
X152465000Y-107390000D03*
X154015000Y-107390000D03*
%TD*%
D10*
%TO.C,C15*%
X142760000Y-95390000D03*
X143720000Y-95390000D03*
%TD*%
%TO.C,C11*%
X167760000Y-99390000D03*
X168720000Y-99390000D03*
%TD*%
D11*
%TO.C,R9*%
X162730000Y-99390000D03*
X163750000Y-99390000D03*
%TD*%
D10*
%TO.C,C13*%
X152760000Y-105390000D03*
X153720000Y-105390000D03*
%TD*%
D11*
%TO.C,R17*%
X155730000Y-102390000D03*
X156750000Y-102390000D03*
%TD*%
%TO.C,R18*%
X155730000Y-104390000D03*
X156750000Y-104390000D03*
%TD*%
D23*
%TO.C,U8*%
X151265000Y-91590000D03*
X151915000Y-91590000D03*
X152565000Y-91590000D03*
X153215000Y-91590000D03*
X153215000Y-93190000D03*
X152565000Y-93190000D03*
X151915000Y-93190000D03*
X151265000Y-93190000D03*
%TD*%
D10*
%TO.C,C16*%
X151760000Y-115390000D03*
X152720000Y-115390000D03*
%TD*%
D24*
%TO.C,J1*%
X164100000Y-96430000D03*
X164100000Y-90650000D03*
D25*
X162655000Y-96790000D03*
X162655000Y-95990000D03*
D26*
X162655000Y-94790000D03*
X162655000Y-93790000D03*
X162655000Y-93290000D03*
X162655000Y-92290000D03*
D25*
X162655000Y-91090000D03*
X162655000Y-90290000D03*
X162655000Y-90290000D03*
X162655000Y-91090000D03*
D26*
X162655000Y-91790000D03*
X162655000Y-92790000D03*
X162655000Y-94290000D03*
X162655000Y-95290000D03*
D25*
X162655000Y-95990000D03*
X162655000Y-96790000D03*
D27*
X163570000Y-97860000D03*
D28*
X167750000Y-97860000D03*
D27*
X163570000Y-89220000D03*
D28*
X167750000Y-89220000D03*
%TD*%
D19*
%TO.C,D3*%
X145452500Y-85390000D03*
X147027500Y-85390000D03*
%TD*%
D14*
%TO.C,C3*%
X160465000Y-110390000D03*
X162015000Y-110390000D03*
%TD*%
D11*
%TO.C,R11*%
X155730000Y-91390000D03*
X156750000Y-91390000D03*
%TD*%
D29*
%TO.C,J3*%
X165620000Y-103765000D03*
X165620000Y-105015000D03*
X165620000Y-106265000D03*
X165620000Y-107515000D03*
D30*
X168970000Y-101915000D03*
X168970000Y-109365000D03*
%TD*%
D10*
%TO.C,C2*%
X142760000Y-111390000D03*
X143720000Y-111390000D03*
%TD*%
D12*
%TO.C,H2*%
X167606700Y-83396700D03*
X168089974Y-82229974D03*
X168089974Y-84563426D03*
X169256700Y-81746700D03*
D13*
X169256700Y-83396700D03*
D12*
X169256700Y-85046700D03*
X170423426Y-82229974D03*
X170423426Y-84563426D03*
X170906700Y-83396700D03*
%TD*%
D11*
%TO.C,R2*%
X135730000Y-97390000D03*
X136750000Y-97390000D03*
%TD*%
D10*
%TO.C,C19*%
X148760000Y-107390000D03*
X149720000Y-107390000D03*
%TD*%
D31*
%TO.C,D1*%
X159590000Y-107390000D03*
X162890000Y-107390000D03*
%TD*%
D10*
%TO.C,C10*%
X152760000Y-103390000D03*
X153720000Y-103390000D03*
%TD*%
D14*
%TO.C,C5*%
X160465000Y-113390000D03*
X162015000Y-113390000D03*
%TD*%
D11*
%TO.C,R3*%
X138730000Y-98390000D03*
X139750000Y-98390000D03*
%TD*%
D32*
%TO.C,U9*%
X146010000Y-96090000D03*
X146010000Y-97360000D03*
X146010000Y-98630000D03*
X146010000Y-99900000D03*
X153510000Y-99900000D03*
X153510000Y-98630000D03*
X153510000Y-97360000D03*
X153510000Y-96090000D03*
D33*
X149760000Y-97995000D03*
%TD*%
D12*
%TO.C,H3*%
X167710000Y-115710000D03*
X168193274Y-114543274D03*
X168193274Y-116876726D03*
X169360000Y-114060000D03*
D13*
X169360000Y-115710000D03*
D12*
X169360000Y-117360000D03*
X170526726Y-114543274D03*
X170526726Y-116876726D03*
X171010000Y-115710000D03*
%TD*%
%TO.C,H4*%
X126446700Y-115503300D03*
X126929974Y-114336574D03*
X126929974Y-116670026D03*
X128096700Y-113853300D03*
D13*
X128096700Y-115503300D03*
D12*
X128096700Y-117153300D03*
X129263426Y-114336574D03*
X129263426Y-116670026D03*
X129746700Y-115503300D03*
%TD*%
D17*
%TO.C,U1*%
X135965000Y-107390000D03*
X135965000Y-107890000D03*
X135965000Y-108390000D03*
X135965000Y-108890000D03*
X135965000Y-109390000D03*
X138515000Y-109390000D03*
X138515000Y-108890000D03*
X138515000Y-108390000D03*
X138515000Y-107890000D03*
X138515000Y-107390000D03*
D18*
X137240000Y-108390000D03*
%TD*%
D14*
%TO.C,C1*%
X128465000Y-88390000D03*
X130015000Y-88390000D03*
%TD*%
D34*
%TO.C,SW1*%
X135990000Y-87130000D03*
X135990000Y-82930000D03*
%TD*%
D11*
%TO.C,R1*%
X132730000Y-90390000D03*
X133750000Y-90390000D03*
%TD*%
%TO.C,R4*%
X137730000Y-100390000D03*
X138750000Y-100390000D03*
%TD*%
%TO.C,R16*%
X156730000Y-106390000D03*
X157750000Y-106390000D03*
%TD*%
%TO.C,R7*%
X131730000Y-110390000D03*
X132750000Y-110390000D03*
%TD*%
D35*
%TO.C,Y1*%
X156040000Y-98390000D03*
X157240000Y-98390000D03*
X158440000Y-98390000D03*
%TD*%
M02*
