M48
; DRILL file {KiCad 9.0.6} date 2026-01-01T00:57:49+0530
; FORMAT={-:-/ absolute / metric / decimal}
; #@! TF.CreationDate,2026-01-01T00:57:49+05:30
; #@! TF.GenerationSoftware,Kicad,Pcbnew,9.0.6
; #@! TF.FileFunction,Plated,1,2,PTH
FMAT,2
METRIC
; #@! TA.AperFunction,Plated,PTH,ViaDrill
T1C0.400
; #@! TA.AperFunction,Plated,PTH,ComponentDrill
T2C0.400
; #@! TA.AperFunction,Plated,PTH,ComponentDrill
T3C0.600
; #@! TA.AperFunction,Plated,PTH,ComponentDrill
T4C1.000
; #@! TA.AperFunction,Plated,PTH,ComponentDrill
T5C2.200
%
G90
G05
T1
X133.348Y-89.068
X133.758Y-110.151
X134.744Y-108.34
X134.943Y-99.263
X137.101Y-111.181
X137.139Y-101.658
X137.21Y-113.186
X137.575Y-99.15
X137.639Y-97.203
X138.365Y-101.526
X138.424Y-86.611
X138.944Y-110.191
X139.248Y-97.529
X140.147Y-96.174
X140.234Y-104.318
X140.563Y-102.547
X141.401Y-109.17
X141.428Y-100.852
X141.614Y-97.576
X141.621Y-95.386
X142.154Y-99.19
X142.294Y-101.749
X143.993Y-104.414
X145.697Y-100.796
X146.672Y-115.36
X146.938Y-94.888
X147.257Y-106.402
X147.929Y-101.618
X149.614Y-90.825
X149.973Y-95.176
X150.654Y-94.437
X150.675Y-101.145
X151.008Y-90.524
X151.716Y-86.39
X151.901Y-101.145
X152.538Y-90.382
X152.541Y-98.301
X152.816Y-87.827
X153.387Y-106.325
X153.473Y-95.02
X153.922Y-101.543
X154.167Y-91.218
X154.794Y-103.954
X155.14Y-105.208
X155.183Y-107.75
X155.767Y-87.702
X156.203Y-90.268
X157.1Y-100.813
X157.602Y-103.426
X157.829Y-102.158
X157.965Y-107.968
X158.229Y-96.245
X158.39Y-91.801
X158.963Y-89.831
X158.991Y-99.887
X159.561Y-98.347
X159.717Y-95.157
X160.001Y-93.58
X161.235Y-96.173
X161.64Y-106.773
X163.209Y-103.955
X166.132Y-93.718
T2
X126.447Y-83.637
X126.447Y-115.503
X126.93Y-82.47
X126.93Y-84.803
X126.93Y-114.337
X126.93Y-116.67
X128.097Y-81.987
X128.097Y-85.287
X128.097Y-113.853
X128.097Y-117.153
X129.263Y-82.47
X129.263Y-84.803
X129.263Y-114.337
X129.263Y-116.67
X129.747Y-83.637
X129.747Y-115.503
X167.607Y-83.397
X167.71Y-115.71
X168.09Y-82.23
X168.09Y-84.563
X168.193Y-114.543
X168.193Y-116.877
X169.257Y-81.747
X169.257Y-85.047
X169.36Y-114.06
X169.36Y-117.36
X170.423Y-82.23
X170.423Y-84.563
X170.527Y-114.543
X170.527Y-116.877
X170.907Y-83.397
X171.01Y-115.71
T4
X127.94Y-92.28
X127.94Y-94.82
X127.94Y-97.36
X127.94Y-99.9
X127.94Y-103.075
X127.94Y-105.615
X127.94Y-108.155
X130.48Y-92.28
X130.48Y-94.82
X130.48Y-97.36
X130.48Y-99.9
X130.48Y-103.075
X130.48Y-105.615
X130.48Y-108.155
X133.02Y-92.28
X133.02Y-94.82
X133.02Y-97.36
X133.02Y-99.9
X133.02Y-103.075
X133.02Y-105.615
X133.02Y-108.155
T5
X128.097Y-83.637
X128.097Y-115.503
X169.257Y-83.397
X169.36Y-115.71
T3
G00X163.02Y-89.22
M15
G01X164.12Y-89.22
M16
G05
G00X163.02Y-97.86
M15
G01X164.12Y-97.86
M16
G05
G00X167.45Y-89.22
M15
G01X168.05Y-89.22
M16
G05
G00X167.45Y-97.86
M15
G01X168.05Y-97.86
M16
G05
M30
